<svg viewBox="0 0 98 24" fill="none" xmlns="http://www.w3.org/2000/svg">
  <path
    fill-rule="evenodd"
    clip-rule="evenodd"
    d="M97.17 4.22a2.13 2.13 0 0 1-1.58.67c-.62 0-1.15-.22-1.59-.67a2.22 2.22 0 0 1-.64-1.6c0-.63.21-1.16.65-1.6.44-.45.96-.67 1.58-.67.62 0 1.15.22 1.58.66.44.44.66.98.66 1.6 0 .63-.22 1.17-.65 1.61Zm-.22-2.98A1.86 1.86 0 0 0 95.6.66c-.53 0-.98.2-1.36.58a1.9 1.9 0 0 0-.56 1.38c0 .54.18 1 .56 1.39.37.38.82.57 1.36.57.53 0 .99-.19 1.36-.57a1.92 1.92 0 0 0 .57-1.4c0-.53-.2-1-.56-1.37Zm-.52 1.7c.09.13.13.26.13.39v.18a3.28 3.28 0 0 0 .03.31l.01.03h-.4v-.02l-.01-.03-.01-.08v-.2c0-.28-.08-.47-.24-.57-.15-.06-.31-.09-.48-.08h-.34v.98h-.43V1.36h.86c.3 0 .52.03.67.1.25.1.38.31.38.62 0 .23-.08.39-.24.5-.1.06-.23.1-.36.11a.6.6 0 0 1 .43.25Zm-.25-.82c0-.18-.06-.3-.17-.36-.1-.07-.28-.1-.52-.1h-.37v.9h.4c.13.01.27 0 .4-.05a.4.4 0 0 0 .26-.39Zm-11.6 16.34H82.3V2.16h-5.46V.33h13.2v1.81h-5.47v16.31Zm-18.94-2.52a68.73 68.73 0 0 1 15.56 6.67v.49a84.37 84.37 0 0 0-27.4-6.97L57 24H54.5l-3.16-8.04c-3.1-.17-6.2-.2-9.3-.07L38.84 24h-2.48l3.25-7.98a84.94 84.94 0 0 0-28.99 7.08v-.5a69.47 69.47 0 0 1 17.02-7.02v-4.83L20.95.35h2.49l5.31 8.64L34.07.34h2.48l-6.7 10.4v4.3a69.79 69.79 0 0 1 10.76-1.47L46.13 0h1.1l5.57 13.68c3.56.28 7.1.84 10.58 1.67V2.15H57.9V.35h13.2v1.8h-5.47v13.8ZM46.68 4.07 43 13.46c2.47-.08 4.94-.06 7.4.06l-3.7-9.45ZM12.02 9.52H2.26v8.94H0V.34h2.26v7.38h9.76V.34h2.27v18.12h-2.27V9.53Z"
    fill="currentColor" />
</svg>
